<svg width="390" height="376" viewBox="0 0 390 376" fill="none" xmlns="http://www.w3.org/2000/svg">
<g id="clouds" clip-path="url(#clip0_1467_20337)">
<g id="Clouds">
<g id="Group 1046">
<g id="cloud">
<path id="Vector 854" d="M227.418 133.614C193.798 118.97 160.473 156.789 171.087 183.13C175.682 195.485 175.356 201.796 172.104 212.46L156.343 231.639C137.487 248.402 162.958 256.158 237.998 268.64C306.007 272.863 331.818 267.401 338.046 232.355C337.221 210.511 342.28 194.263 314.276 192.137C304.575 190.703 299.6 188.924 293.197 180.576C290.239 150.528 285.998 138.344 264.613 141.394C251.421 118.102 243.532 112.644 227.418 133.614Z" fill="url(#paint0_radial_1467_20337)"/>
<path id="Vector 855" d="M228.1 137.432C193.583 122.324 159.273 161.562 170.13 188.829C174.829 201.619 167.406 206.872 164.044 217.924L148.621 236.663C129.215 254.063 161.643 264.493 238.723 277.286C308.594 281.535 335.125 275.83 341.588 239.514C340.782 216.887 346.01 200.047 317.239 197.896C307.274 196.429 302.166 194.595 295.601 185.959C292.618 154.838 288.282 142.225 266.304 145.423C252.792 121.32 244.696 115.68 228.1 137.432Z" fill="url(#paint1_radial_1467_20337)"/>
<path id="Vector 856" d="M217.379 192.248C195.152 167.44 187.165 156.639 182.95 144.236C166.855 157.135 166.016 175.062 170.392 194.153C173.057 203.905 167.143 210.569 163.149 218.654C126.668 251.665 143.701 258.529 187.532 266.605C283.214 287.68 325.111 288.434 346.693 239.701C343.974 224.849 322.572 233.609 294.676 212.497C274.19 199.967 264.685 192.41 248.25 178.81C238.652 174.208 231.873 177.227 217.379 192.248Z" fill="url(#paint2_radial_1467_20337)"/>
</g>
<g id="cloud_2">
<path id="Vector 854_2" d="M364.448 74.8609C380.372 41.8273 430.301 48.7444 439.444 75.6309C444.023 87.9921 448.388 92.5622 457.81 98.5207L482.268 102.772C507.495 103.172 493.253 125.668 444.531 184.089C395.748 231.663 372.624 244.365 345.038 221.869C331.41 204.777 316.975 195.766 336.81 175.882C343.226 168.466 345.835 163.873 345.241 153.368C327.877 128.667 323.142 116.667 341.337 105.025C336.138 78.7671 338.555 69.4834 364.448 74.8609Z" fill="url(#paint3_radial_1467_20337)"/>
<path id="Vector 855_2" d="M366.423 78.1993C382.724 44.2286 434.326 51.5777 443.889 79.3248C448.673 92.0832 457.726 91.2207 467.484 97.4026L491.399 101.54C517.457 102.064 499.688 131.127 449.623 191.113C399.445 239.923 375.617 252.91 347.025 229.606C332.873 211.932 317.923 202.582 338.322 182.18C344.917 174.566 347.592 169.844 346.932 159.016C328.887 133.485 323.943 121.098 342.685 109.181C337.198 82.0994 339.654 72.5432 366.423 78.1993Z" fill="url(#paint4_radial_1467_20337)"/>
<g id="Vector 856_2" filter="url(#filter0_f_1467_20337)">
<path d="M410.31 112.745C410.969 79.4428 409.974 66.0458 405.075 53.8969C425.689 53.1703 438.021 66.2084 447.161 83.5306C451.505 92.6604 460.335 93.8518 468.637 97.3729C517.821 98.5862 509.392 114.902 481.445 149.62C422.686 228.02 391.428 255.928 343.276 233.078C335.646 220.049 357.58 212.724 364.946 178.523C372.296 155.662 374.567 143.733 378.149 122.703C382.42 112.954 389.526 110.819 410.31 112.745Z" fill="url(#paint5_radial_1467_20337)"/>
</g>
</g>
</g>
<g id="Group 1047">
<g id="cloud_3">
<path id="Vector 854_3" d="M164.282 139.771C200.571 145.051 208.952 194.756 186.047 211.544C175.629 219.62 172.579 225.155 169.721 235.931L173.003 260.537C180.19 284.722 154.457 277.885 84.1108 248.934C24.0926 216.671 5.03842 198.423 18.2218 165.359C30.4378 147.231 34.7038 130.757 59.6218 143.713C68.6216 147.609 73.7862 148.72 83.6288 145.002C101.982 121.027 112.009 112.91 128.573 126.774C152.062 113.936 161.643 113.457 164.282 139.771Z" fill="url(#paint6_radial_1467_20337)"/>
<path id="Vector 855_3" d="M161.69 142.657C198.986 148.015 207.457 199.445 183.857 216.892C173.122 225.283 176.66 233.66 173.691 244.824L176.918 268.878C184.236 293.894 151.182 285.662 78.9382 255.899C17.3236 222.677 -2.21389 203.842 11.4384 169.576C24.0521 150.773 28.4869 133.707 54.069 147.046C63.311 151.053 68.6178 152.187 78.7488 148.309C97.6902 123.436 108.023 115.003 125.014 129.308C149.202 115.949 159.055 115.424 161.69 142.657Z" fill="url(#paint7_radial_1467_20337)"/>
<path id="Vector 856_3" d="M141.901 194.886C173.867 185.523 186.348 180.554 196.468 172.237C203.346 191.683 194.608 207.359 180.826 221.275C173.42 228.157 174.932 236.937 174.064 245.913C187.662 293.196 169.57 290.05 128.066 273.807C35.6492 241.275 -0.351346 219.829 7.00012 167.041C17.1397 155.853 30.7084 174.579 65.5435 171.345C89.5568 171.497 101.618 170.086 122.753 167.193C133.335 168.342 137.503 174.481 141.901 194.886Z" fill="url(#paint8_radial_1467_20337)"/>
</g>
<g id="cloud_4">
<path id="Vector 854_4" d="M84.994 88.0716C81.5919 51.5586 32.3851 40.6272 14.4387 62.6365C5.83601 72.6244 0.151197 75.3851 -10.7574 77.6833L-35.162 73.1375C-58.9446 64.7141 -53.4428 90.7648 -28.1561 162.51C0.971352 224.111 18.2133 244.08 51.9125 232.619C70.6461 221.353 87.3177 217.942 75.6633 192.389C72.2362 183.201 71.393 177.986 75.6137 168.348C100.502 151.254 109.126 141.659 96.1331 124.402C110.165 101.607 111.137 92.0628 84.994 88.0716Z" fill="url(#paint9_radial_1467_20337)"/>
<path id="Vector 855_4" d="M81.9775 90.5122C78.5485 52.9893 27.6233 41.8792 8.98351 64.5487C0.0498471 74.8373 -8.13351 70.8716 -19.4351 73.2619L-43.2914 68.7988C-67.8964 60.2015 -61.3794 93.6361 -35.3796 167.318C-5.37664 230.563 12.4259 251.045 47.3506 239.177C66.778 227.549 84.05 224 72.0476 197.764C68.5225 188.328 67.6628 182.97 72.058 173.052C97.8739 155.418 106.828 145.533 93.4186 127.828C108.007 104.36 109.038 94.5476 81.9775 90.5122Z" fill="url(#paint10_radial_1467_20337)"/>
<path id="Vector 856_4" d="M28.7987 107.58C39.7969 76.1398 45.4018 63.931 54.2299 54.2535C35.1642 46.383 19.0588 54.3011 4.45109 67.3478C-2.80373 74.3894 -11.4947 72.4263 -20.5034 72.8308C-67.0221 56.8137 -64.8132 75.0442 -50.7304 117.33C-23.0053 211.301 -3.44318 248.359 49.6542 243.738C61.3498 234.188 43.3478 219.672 48.373 185.05C49.4582 161.061 51.4895 149.089 55.4679 128.131C54.8656 117.503 48.9496 113.024 28.7987 107.58Z" fill="url(#paint11_radial_1467_20337)"/>
</g>
<g id="cloud_5">
<path id="Vector 854_5" d="M-4.75381 127.107C-39.1426 114.372 -70.2931 154.001 -58.2186 179.705C-52.9377 191.783 -52.9091 198.102 -55.5583 208.931L-70.2183 228.964C-88.1046 246.759 -62.2389 253.073 13.3828 261.327C81.5221 261.729 106.986 254.828 111.238 219.487C109.19 197.724 113.33 181.218 85.2502 180.666C75.4835 179.778 70.4173 178.282 63.5553 170.306C58.917 140.471 53.9993 128.544 32.8191 132.789C18.3414 110.274 10.1586 105.266 -4.75381 127.107Z" fill="url(#paint12_radial_1467_20337)"/>
<path id="Vector 855_5" d="M-3.85738 130.883C-39.1682 117.735 -71.2234 158.836 -58.8539 185.45C-53.445 197.957 -60.5617 203.618 -63.298 214.841L-77.6461 234.416C-96.0451 252.876 -63.0834 261.471 14.5928 269.92C84.5928 270.244 110.762 263.059 115.178 226.439C113.103 203.892 117.378 186.786 88.5326 186.252C78.5003 185.346 73.2978 183.802 66.2592 175.547C61.5345 144.642 56.4986 132.292 34.7341 136.718C19.8915 113.411 11.4919 108.234 -3.85738 130.883Z" fill="url(#paint13_radial_1467_20337)"/>
<path id="Vector 856_5" d="M-11.4845 186.212C-35.0684 162.69 -43.649 152.353 -48.5526 140.207C-63.8991 153.988 -63.7311 171.934 -58.2915 190.749C-55.0832 200.337 -60.6142 207.322 -64.1484 215.618C-98.7202 250.623 -81.3295 256.522 -37.1143 262.126C59.5991 277.801 101.473 276.204 120.287 226.337C116.74 211.66 95.8626 221.607 66.8256 202.093C45.6691 190.732 35.7554 183.72 18.5834 171.063C8.74232 167.007 2.14389 170.402 -11.4845 186.212Z" fill="url(#paint14_radial_1467_20337)"/>
</g>
<g id="cloud_6">
<path id="Vector 854_6" d="M384.615 102.693C421.231 100.694 439.273 147.761 420.138 168.746C411.523 178.723 409.627 184.751 408.956 195.879L417.038 219.351C428.863 241.638 402.287 240.023 327.606 225.55C262.394 205.788 240.108 191.666 246.495 156.649C254.887 136.464 255.812 119.472 282.799 127.246C292.392 129.286 297.674 129.354 306.588 123.764C319.839 96.6338 328.064 86.6944 347.042 97.0111C367.529 79.7832 376.827 77.4192 384.615 102.693Z" fill="url(#paint15_radial_1467_20337)"/>
<path id="Vector 855_6" d="M382.643 106.032C420.262 103.912 438.733 152.652 419.047 174.42C410.183 184.768 415.308 192.28 414.603 203.81L422.522 226.752C434.641 249.827 400.612 248.293 323.91 233.399C256.944 213.012 234.069 198.411 240.678 162.122C249.325 141.197 250.299 123.591 278.013 131.609C287.865 133.71 293.291 133.773 302.456 127.969C316.106 99.8425 324.569 89.5334 344.051 100.197C365.121 82.3195 374.676 79.8576 382.643 106.032Z" fill="url(#paint16_radial_1467_20337)"/>
<path id="Vector 856_6" d="M373.571 161.144C403.055 145.646 414.308 138.309 422.584 128.155C433.17 145.857 427.703 162.951 416.944 179.317C411.044 187.528 414.263 195.836 415.186 204.806C437.863 248.467 419.506 248.961 375.61 241.242C278.586 227.622 239.057 213.716 235.828 160.516C243.555 147.544 260.558 163.218 294.067 153.162C317.636 148.564 329.18 144.797 349.326 137.783C359.927 136.817 365.226 142.011 373.571 161.144Z" fill="url(#paint17_radial_1467_20337)"/>
</g>
</g>
</g>
</g>
<defs>
<filter id="filter0_f_1467_20337" x="339.688" y="51.8672" width="166.301" height="190.93" filterUnits="userSpaceOnUse" color-interpolation-filters="sRGB">
<feFlood flood-opacity="0" result="BackgroundImageFix"/>
<feBlend mode="normal" in="SourceGraphic" in2="BackgroundImageFix" result="shape"/>
<feGaussianBlur stdDeviation="1" result="effect1_foregroundBlur_1467_20337"/>
</filter>
<radialGradient id="paint0_radial_1467_20337" cx="0" cy="0" r="1" gradientUnits="userSpaceOnUse" gradientTransform="translate(263.583 143.732) rotate(117.26) scale(157.696 194.46)">
<stop stop-color="#77CDE1"/>
<stop offset="1" stop-color="#4A9EBB"/>
</radialGradient>
<radialGradient id="paint1_radial_1467_20337" cx="0" cy="0" r="1" gradientUnits="userSpaceOnUse" gradientTransform="translate(265.242 147.847) rotate(117.13) scale(163.315 199.856)">
<stop stop-color="#77CDE1"/>
<stop offset="1" stop-color="#4A9EBB"/>
</radialGradient>
<radialGradient id="paint2_radial_1467_20337" cx="0" cy="0" r="1" gradientUnits="userSpaceOnUse" gradientTransform="translate(248.945 188.137) rotate(144.923) scale(104.645 168.296)">
<stop stop-color="#52A4C6"/>
<stop offset="1" stop-color="#3C83AB"/>
</radialGradient>
<radialGradient id="paint3_radial_1467_20337" cx="0" cy="0" r="1" gradientUnits="userSpaceOnUse" gradientTransform="translate(343.644 106.125) rotate(22.0119) scale(157.696 194.46)">
<stop stop-color="#77CDE1"/>
<stop offset="1" stop-color="#4A9EBB"/>
</radialGradient>
<radialGradient id="paint4_radial_1467_20337" cx="0" cy="0" r="1" gradientUnits="userSpaceOnUse" gradientTransform="translate(345.072 110.326) rotate(22.1421) scale(163.315 199.856)">
<stop stop-color="#EAFCFD"/>
<stop offset="1" stop-color="#4A9EBB"/>
</radialGradient>
<radialGradient id="paint5_radial_1467_20337" cx="0" cy="0" r="1" gradientUnits="userSpaceOnUse" gradientTransform="translate(383.708 130.225) rotate(-5.65067) scale(104.645 168.296)">
<stop stop-color="#52A4C6"/>
<stop offset="1" stop-color="#3C83AB"/>
</radialGradient>
<radialGradient id="paint6_radial_1467_20337" cx="0" cy="0" r="1" gradientUnits="userSpaceOnUse" gradientTransform="translate(128.216 129.305) rotate(94.5537) scale(157.696 194.46)">
<stop stop-color="#77CDE1"/>
<stop offset="1" stop-color="#4A9EBB"/>
</radialGradient>
<radialGradient id="paint7_radial_1467_20337" cx="0" cy="0" r="1" gradientUnits="userSpaceOnUse" gradientTransform="translate(124.638 131.928) rotate(94.6839) scale(163.315 199.856)">
<stop stop-color="#77CDE1"/>
<stop offset="1" stop-color="#4A9EBB"/>
</radialGradient>
<radialGradient id="paint8_radial_1467_20337" cx="0" cy="0" r="1" gradientUnits="userSpaceOnUse" gradientTransform="translate(117.245 174.753) rotate(66.8911) scale(104.645 168.296)">
<stop stop-color="#52A4C6"/>
<stop offset="1" stop-color="#3C83AB"/>
</radialGradient>
<radialGradient id="paint9_radial_1467_20337" cx="0" cy="0" r="1" gradientUnits="userSpaceOnUse" gradientTransform="translate(93.588 124.629) rotate(178.401) scale(157.696 194.46)">
<stop stop-color="#77CDE1"/>
<stop offset="1" stop-color="#4A9EBB"/>
</radialGradient>
<radialGradient id="paint10_radial_1467_20337" cx="0" cy="0" r="1" gradientUnits="userSpaceOnUse" gradientTransform="translate(90.7829 128.068) rotate(178.27) scale(163.315 199.856)">
<stop stop-color="#EAFCFD"/>
<stop offset="1" stop-color="#4A9EBB"/>
</radialGradient>
<radialGradient id="paint11_radial_1467_20337" cx="0" cy="0" r="1" gradientUnits="userSpaceOnUse" gradientTransform="translate(47.6341 133.241) rotate(-153.937) scale(104.645 168.296)">
<stop stop-color="#52A4C6"/>
<stop offset="1" stop-color="#3C83AB"/>
</radialGradient>
<radialGradient id="paint12_radial_1467_20337" cx="0" cy="0" r="1" gradientUnits="userSpaceOnUse" gradientTransform="translate(31.9217 135.181) rotate(114.045) scale(157.696 194.46)">
<stop stop-color="#77CDE1"/>
<stop offset="1" stop-color="#4A9EBB"/>
</radialGradient>
<radialGradient id="paint13_radial_1467_20337" cx="0" cy="0" r="1" gradientUnits="userSpaceOnUse" gradientTransform="translate(33.81 139.199) rotate(113.915) scale(163.315 199.856)">
<stop stop-color="#77CDE1"/>
<stop offset="1" stop-color="#4A9EBB"/>
</radialGradient>
<radialGradient id="paint14_radial_1467_20337" cx="0" cy="0" r="1" gradientUnits="userSpaceOnUse" gradientTransform="translate(44.5956 185.138) rotate(150.683) scale(122.632 197.225)">
<stop stop-color="#52A4C6"/>
<stop offset="0.506864" stop-color="#3C83AB"/>
<stop offset="1" stop-color="#112866"/>
</radialGradient>
<radialGradient id="paint15_radial_1467_20337" cx="0" cy="0" r="1" gradientUnits="userSpaceOnUse" gradientTransform="translate(347.192 99.5619) rotate(83.1522) scale(157.696 194.46)">
<stop stop-color="#77CDE1"/>
<stop offset="1" stop-color="#4A9EBB"/>
</radialGradient>
<radialGradient id="paint16_radial_1467_20337" cx="0" cy="0" r="1" gradientUnits="userSpaceOnUse" gradientTransform="translate(344.201 102.839) rotate(83.2824) scale(163.315 199.856)">
<stop stop-color="#77CDE1"/>
<stop offset="1" stop-color="#4A9EBB"/>
</radialGradient>
<radialGradient id="paint17_radial_1467_20337" cx="0" cy="0" r="1" gradientUnits="userSpaceOnUse" gradientTransform="translate(320.316 143.538) rotate(46.5137) scale(122.632 197.225)">
<stop stop-color="#52A4C6"/>
<stop offset="0.506864" stop-color="#3C83AB"/>
<stop offset="1" stop-color="#112866"/>
</radialGradient>
<clipPath id="clip0_1467_20337">
<rect width="390" height="376" fill="white"/>
</clipPath>
</defs>
</svg>
